HIERARCHY
ROOT HipCenter
{
    OFFSET 0.0 0.0 -0.0
    CHANNELS 6 Xposition Yposition Zposition Zrotation Xrotation Yrotation
    JOINT Spine
    {
        OFFSET 0.0 0.11784423142671585 0.0
        CHANNELS 3 Zrotation Xrotation Yrotation
        JOINT ShoulderCenter
        {
            OFFSET 0.0 0.31591737270355225 0.0
            CHANNELS 3 Zrotation Xrotation Yrotation
            JOINT LeftShoulder
            {
                OFFSET 0.16902485489845276 0.0 0.0
                CHANNELS 3 Zrotation Xrotation Yrotation
                JOINT LeftElbow
                {
                    OFFSET 0.24583856761455536 0.0 0.0
                    CHANNELS 3 Zrotation Xrotation Yrotation
                    JOINT LeftWrist
                    {
                        OFFSET 0.2672184705734253 0.0 0.0
                        CHANNELS 3 Zrotation Xrotation Yrotation
                        JOINT LeftHand
                        {
                            OFFSET 0.032809190452098846 0.0 0.0
                            CHANNELS 3 Zrotation Xrotation Yrotation
                            End Site
                            {
                                OFFSET 0.01312367431819439 0.0 0.0
                            }
                        }
                    }
                }
            }
            JOINT RightShoulder
            {
                OFFSET -0.16902485489845276 0.0 0.0
                CHANNELS 3 Zrotation Xrotation Yrotation
                JOINT RightElbow
                {
                    OFFSET -0.24583856761455536 0.0 0.0
                    CHANNELS 3 Zrotation Xrotation Yrotation
                    JOINT RightWrist
                    {
                        OFFSET -0.2672184705734253 0.0 0.0
                        CHANNELS 3 Zrotation Xrotation Yrotation
                        JOINT RightHand
                        {
                            OFFSET -0.032809190452098846 0.0 0.0
                            CHANNELS 3 Zrotation Xrotation Yrotation
                            End Site
                            {
                                OFFSET -0.01312367431819439 0.0 0.0
                            }
                        }
                    }
                }
            }
            End Site
            {
                OFFSET 0.0 0.12636694312095642 0.0
            }
        }
    }
    JOINT LeftHip
    {
        OFFSET 0.12334194779396057 0.0 0.0
        CHANNELS 3 Zrotation Xrotation Yrotation
        JOINT LeftKnee
        {
            OFFSET 0.0 -0.36661842465400696 0.0
            CHANNELS 3 Zrotation Xrotation Yrotation
            JOINT LeftAnkle
            {
                OFFSET 0.0 -0.3813181519508362 0.0
                CHANNELS 3 Zrotation Xrotation Yrotation
                JOINT LeftFoot
                {
                    OFFSET 0.0 -0.11607301235198975 0.0
                    CHANNELS 3 Zrotation Xrotation Yrotation
                    End Site
                    {
                        OFFSET 0.0 0.0 0.046429216861724854
                    }
                }
            }
        }
    }
    JOINT RightHip
    {
        OFFSET -0.12334194779396057 0.0 0.0
        CHANNELS 3 Zrotation Xrotation Yrotation
        JOINT RightKnee
        {
            OFFSET 0.0 -0.36661842465400696 0.0
            CHANNELS 3 Zrotation Xrotation Yrotation
            JOINT RightAnkle
            {
                OFFSET 0.0 -0.3813181519508362 0.0
                CHANNELS 3 Zrotation Xrotation Yrotation
                JOINT RightFoot
                {
                    OFFSET 0.0 -0.11607301235198975 0.0
                    CHANNELS 3 Zrotation Xrotation Yrotation
                    End Site
                    {
                        OFFSET 0.0 0.0 0.046429216861724854
                    }
                }
            }
        }
    }
}
MOTION
Frames: 6
Frame Time: 0.03333333333333333
0.5659999847412109 -0.09600000083446503 -0.2290000021457672 -2.426333758337774 0.48511153754953196 -176.89939598457812 1.6187001121017208 -2.6973209544230747 0.024321263414873284 -2.6615132729170823e-07 -1.4933257035491936e-08 1.6518253220993866 120.13957081574799 7.655287539149074 176.62303778214894 6.394444387446997e-06 3.431303443142365e-06 29.551501480910744 179.99999883169366 -42.166056606686325 -124.56935411141298 -2.3854160110976368e-15 -3.180554681463516e-15 -6.620859447075238e-32 -108.56266751979905 17.790414278203993 178.56091264208743 9.20428289034992e-07 -2.7297961065474376e-06 -26.40155078240311 1.1824211121360147e-06 5.577463810743476 -31.932087562814157 6.3611093629270335e-15 0.0 0.0 -1.4412559352408394 -10.819445762271105 -15.153358023577624 -14.188751100464668 28.460588328278504 -18.28941963654634 93.80158238260462 -27.978775504664306 145.0476888312966 -6.3611093629270335e-15 -6.3611093629270335e-15 1.590277340731758e-15 0.9178871409920284 -5.743521460801914 21.829601110203008 3.13270554423884 16.28013228531494 16.91291649992517 -102.1331619575663 -45.92427371796679 -155.00753675592227 -3.1805546814635164e-15 -1.7655625192200634e-31 6.361109362927033e-15
0.5659999847412109 -0.09399999678134918 -0.23499999940395355 -1.9414903951703195 -1.894778440261593e-09 -177.64970836407605 1.7743076808015752 -2.4328141302343864 0.02463979217041119 -2.797817636378339e-07 1.1900860763182966e-07 1.9413659350235313 126.74532393735319 9.166345073159533 176.40474867526143 -8.437563669022385e-07 6.776504359458259e-06 28.917101465667507 -179.99999811012017 -37.04652318315821 -124.67716042695044 0.0 0.0 -7.951386703658791e-16 -112.86521639512216 19.322295818440715 177.92032359437397 -3.1198834630599964e-06 1.8344281213837178e-06 -25.913187249237758 1.695452402848743e-06 3.0149709164336045 -32.02260519874268 -6.3611093629270335e-15 6.3611093629270335e-15 3.531125038440127e-31 -0.26065364957489207 -12.939229217887881 -13.451411460877969 -12.59947982247938 28.486899124762424 -20.163238714900825 91.6494214535952 -28.828635290329274 144.5142937938879 0.0 0.0 -6.3611093629270335e-15 1.1851953071090697 -4.952625187669521 23.537509253347803 3.1978482200869656 14.049410917723655 14.514154090024132 -98.40290516445016 -47.29091714285917 -151.41822745151248 -6.3611093629270335e-15 6.3611093629270335e-15 3.531125038440127e-31
0.5659999847412109 -0.09000000357627869 -0.23999999463558197 -1.456368759758636 -0.9707101733552869 -178.80417326193984 1.7641987874226017 -2.4600210929400803 0.00540240268001963 -1.8712244456159406e-07 -9.58598376222399e-08 2.666340803161988 134.71553609064517 10.730309561876988 174.48048770885956 1.460573982774216e-07 -2.340920431706786e-06 29.563083733372384 179.99999845611998 -34.47787938175362 -126.39181726640686 -2.385416011097637e-15 1.6552148617688095e-32 -7.951386703658791e-16 -119.40860827915026 20.666555836876142 178.88583527279093 -4.115454395455388e-06 -4.52381777141802e-06 -25.385810712880197 4.269087755717986e-06 4.225931060355034 -32.382744088929165 -6.3611093629270335e-15 1.2722218725854067e-14 7.062250076880254e-31 0.9456168204549674 -14.751737670725758 -12.5041620298835 -11.72599595949359 28.499525586118573 -21.407591061384803 84.2601192480894 -30.892028591359466 136.20873044192982 -6.3611093629270335e-15 -6.361109362927033e-15 -7.156248033292914e-15 1.6264836430820504 -4.329315034528738 25.437661426456934 2.7782114887656677 11.169306593178074 11.65434779429036 -93.10995136399045 -48.33766146689596 -146.78120509881052 3.1805546814635168e-15 0.0 0.0
0.5640000104904175 -0.08500000089406967 -0.24500000476837158 -1.468781987764276 -1.9574214292830638 179.29145003561922 1.0950860053893599 -2.1248403300397776 -0.03577814385777144 1.468205543792285e-07 4.138284508802518e-08 4.13974288297903 143.93122743694812 11.523922983711616 171.61620030117683 3.6471885510256986e-06 1.0290294840053463e-06 30.283060025997848 -179.99999875701758 -31.8625890322073 -124.60916059779358 3.975693351829397e-15 4.1380371544220234e-32 1.1927080055488192e-15 -127.34593100354697 23.205532224649055 -178.41797564249504 7.005031417323103e-06 4.424739821295611e-06 -25.132977436039756 -2.167641074527966e-06 3.196748365417494 -33.37598885442866 0.0 0.0 0.0 1.61338342856301 -15.694563411414983 -12.068432219864706 -11.459208091790217 28.598468673332714 -21.989950620080045 77.01425528972909 -32.59867330855559 126.16755474806662 -3.1805546814635164e-15 -6.3611093629270335e-15 3.975693351829396e-15 1.4319853753565106 -4.151490784129807 26.392267206472006 2.4703061716597157 8.508794429590456 9.10590049402115 -84.87602210289874 -50.746200885321414 -138.79193283714991 0.0 0.0 -6.3611093629270335e-15
0.5609999895095825 -0.07999999821186066 -0.24799999594688416 -1.4563687887955818 -2.425550696851319 178.14263637450497 0.3634912499734025 -0.051688086755818215 -0.0015910963518542384 4.92639462067052e-08 6.743252822017966e-09 4.818754262852219 153.26471116733615 12.312871360671915 167.90953975730008 -1.203464946704982e-06 2.6893001515904374e-07 30.411430783573763 -179.99999944306853 -31.590744815308945 -123.51655509752267 0.0 0.0 -4.174478019420866e-15 -136.93669074829643 25.645212655431887 -174.1218203264182 -3.886101275395364e-06 4.200819805977642e-06 -24.790071458834618 -6.986513483737611e-07 0.26061629652319707 -32.30430640429833 -3.180554681463516e-15 0.0 0.0 2.1231977264800306 -15.9685285263251 -11.225828241595545 -11.12184461050499 28.502924005370208 -22.489135784024274 72.58732916473215 -33.92078880763784 119.83684922183653 3.1805546814635168e-15 1.9862578341225716e-31 7.156248033292914e-15 1.5143875348850893 -3.9539095220853566 25.97710908135481 1.8967261510756295 6.702998113011777 7.305360431974891 -76.54492898707872 -51.327776672331154 -130.61051060906334 0.0 0.0 -3.1805546814635164e-15
0.5590000152587891 -0.07400000095367432 -0.2460000067949295 -0.9793070284292622 -4.398059669635885 177.5075283626042 0.034587656032949915 1.7644718696602275 0.09476493055646279 -8.332799842535981e-09 5.263060635851678e-07 5.329811705275783 161.9275304556203 13.700110280098801 163.30843600799423 1.8543757856182408e-06 -1.0308531932699627e-07 29.9541779423244 -179.9999981531835 -31.605006054963724 -121.7555045447008 0.0 0.0 2.435112177995505e-15 -147.33620985115286 29.319008853063146 -167.13591292089382 9.825067782370791e-09 -5.404852598964684e-06 -24.771170342065748 -1.254725870012751e-06 -6.473815242076887 -33.88125694756067 -6.3611093629270335e-15 0.0 0.0 2.909527286470957 -18.04089019751877 -10.076866932481115 -10.068992401534318 28.63973687245266 -23.11919819726187 68.80568579273717 -36.141220170646406 113.70916459304443 -3.1805546814635168e-15 -6.3611093629270335e-15 -1.7655625192200634e-31 1.9768319269122572 -6.049700083989229 25.509623380073403 1.8193306934042317 5.72279530307747 6.513268683568294 -71.3553275225941 -50.422235810287454 -126.71993121059222 0.0 6.361109362927035e-15 0.0
